<svg xmlns="http://www.w3.org/2000/svg" viewBox="0 0 1440 320"><path fill="#0099ff" fill-opacity="1" d="M0,160L0,192L36.9,192L36.9,96L73.8,96L73.8,256L110.8,256L110.8,128L147.7,128L147.7,288L184.6,288L184.6,160L221.5,160L221.5,128L258.5,128L258.5,192L295.4,192L295.4,64L332.3,64L332.3,192L369.2,192L369.2,128L406.2,128L406.2,0L443.1,0L443.1,64L480,64L480,256L516.9,256L516.9,256L553.8,256L553.8,160L590.8,160L590.8,224L627.7,224L627.7,0L664.6,0L664.6,128L701.5,128L701.5,128L738.5,128L738.5,64L775.4,64L775.4,224L812.3,224L812.3,256L849.2,256L849.2,192L886.2,192L886.2,64L923.1,64L923.1,128L960,128L960,160L996.9,160L996.9,192L1033.8,192L1033.8,96L1070.8,96L1070.8,256L1107.7,256L1107.7,224L1144.6,224L1144.6,192L1181.5,192L1181.5,160L1218.5,160L1218.5,192L1255.4,192L1255.4,64L1292.3,64L1292.3,192L1329.2,192L1329.2,32L1366.2,32L1366.2,192L1403.1,192L1403.1,288L1440,288L1440,320L1403.1,320L1403.1,320L1366.2,320L1366.2,320L1329.2,320L1329.2,320L1292.3,320L1292.3,320L1255.4,320L1255.4,320L1218.5,320L1218.5,320L1181.5,320L1181.5,320L1144.6,320L1144.6,320L1107.7,320L1107.7,320L1070.8,320L1070.8,320L1033.8,320L1033.8,320L996.9,320L996.9,320L960,320L960,320L923.1,320L923.1,320L886.2,320L886.2,320L849.2,320L849.2,320L812.3,320L812.3,320L775.4,320L775.4,320L738.5,320L738.5,320L701.5,320L701.5,320L664.6,320L664.6,320L627.7,320L627.7,320L590.8,320L590.8,320L553.8,320L553.8,320L516.9,320L516.9,320L480,320L480,320L443.1,320L443.1,320L406.2,320L406.2,320L369.2,320L369.2,320L332.3,320L332.3,320L295.4,320L295.4,320L258.5,320L258.5,320L221.5,320L221.5,320L184.6,320L184.6,320L147.7,320L147.7,320L110.8,320L110.8,320L73.8,320L73.8,320L36.9,320L36.9,320L0,320L0,320Z"></path></svg>